<?xml version="1.0" encoding="utf-8"?>
<!-- Uploaded to: SVG Repo, www.svgrepo.com, Generator: SVG Repo Mixer Tools -->
<svg width="800px" height="800px" viewBox="0 0 64 64" fill="none" xmlns="http://www.w3.org/2000/svg">
<g clip-path="url(#clip0_14_1944)">
<path d="M48.718 37.163L54.764 40.186C55.1344 40.3711 55.446 40.6556 55.6637 41.0078C55.8815 41.36 55.9968 41.7659 55.9968 42.18C55.9968 42.5941 55.8815 43 55.6637 43.3522C55.446 43.7044 55.1344 43.9889 54.764 44.174L33 55.062C32.6898 55.2182 32.3473 55.2995 32 55.2995C31.6527 55.2995 31.3102 55.2182 31 55.062L9.23601 44.174C8.86559 43.9889 8.55404 43.7044 8.33629 43.3522C8.11854 43 8.0032 42.5941 8.0032 42.18C8.0032 41.7659 8.11854 41.36 8.33629 41.0078C8.55404 40.6556 8.86559 40.3711 9.23601 40.186L15.282 37.163" stroke="#426AB2" stroke-width="4" stroke-linecap="round" stroke-linejoin="round"/>
<path d="M48.718 27.129L54.763 30.149C55.1334 30.3341 55.445 30.6186 55.6627 30.9708C55.8805 31.323 55.9958 31.7289 55.9958 32.143C55.9958 32.5571 55.8805 32.963 55.6627 33.3152C55.445 33.6674 55.1334 33.9519 54.763 34.137L48.718 37.16L33 45.029C32.6896 45.1846 32.3472 45.2655 32 45.2655C31.6528 45.2655 31.3104 45.1846 31 45.029L15.28 37.163L9.235 34.14C8.86458 33.9549 8.55303 33.6704 8.33528 33.3182C8.11753 32.966 8.0022 32.5601 8.0022 32.146C8.0022 31.7319 8.11753 31.326 8.33528 30.9738C8.55303 30.6216 8.86458 30.3371 9.235 30.152L15.28 27.129" stroke="#000000" stroke-width="4" stroke-linecap="round" stroke-linejoin="round"/>
<path d="M31 9.235L9.23299 20.12C8.86262 20.3052 8.55113 20.5899 8.33343 20.9422C8.11573 21.2945 8.00043 21.7004 8.00043 22.1145C8.00043 22.5286 8.11573 22.9345 8.33343 23.2868C8.55113 23.6391 8.86262 23.9238 9.23299 24.109L31 34.994C31.3097 35.1489 31.6512 35.2295 31.9975 35.2295C32.3438 35.2295 32.6853 35.1489 32.995 34.994L54.767 24.109C55.1374 23.9238 55.4489 23.6391 55.6666 23.2868C55.8843 22.9345 55.9996 22.5286 55.9996 22.1145C55.9996 21.7004 55.8843 21.2945 55.6666 20.9422C55.4489 20.5899 55.1374 20.3052 54.767 20.12L33 9.235C32.6897 9.07914 32.3472 8.99797 32 8.99797C31.6527 8.99797 31.3103 9.07914 31 9.235Z" stroke="#426AB2" stroke-width="4" stroke-linecap="round" stroke-linejoin="round"/>
</g>
<defs>
<clipPath id="clip0_14_1944">
<rect width="51.999" height="50.298" fill="white" transform="translate(6 7)"/>
</clipPath>
</defs>
</svg>